<svg xmlns="http://www.w3.org/2000/svg" viewBox="0 0 500 500">
  <rect width="500" height="500" fill="#e5efef"/>
  <path d="M0 215c120-18 230-7 325 14 70 16 125 14 175 5v145H0Z" fill="#6e9fa4"/>
  <path d="M0 305c125-12 235 0 330 18 70 13 125 11 170 3" fill="none" stroke="#eff8f8" stroke-width="10"/>
  <path d="M0 380c145-18 300-9 500 16v104H0Z" fill="#e7d4b5"/>
  <g transform="translate(295 190)">
    <circle cx="0" cy="0" r="70" fill="none" stroke="#f9f6ef" stroke-width="6"/>
    <circle cx="0" cy="0" r="6" fill="#f9f6ef"/>
    <g stroke="#f9f6ef" stroke-width="3">
      <path d="M0-70V70M-70 0H70M-50-50L50 50M50-50L-50 50"/>
    </g>
    <path d="M-38 68h76l13 58H-51Z" fill="#987455"/>
  </g>
  <path d="M70 350h180v42H70Z" fill="#c79a4a"/>
  <path d="M75 392h170" stroke="#0a2b49" stroke-width="12"/>
</svg>