<svg xmlns="http://www.w3.org/2000/svg" viewBox="0 0 900 520">
  <defs>
    <linearGradient id="fpBg" x1="0" x2="1">
      <stop offset="0" stop-color="#edf1ec"/><stop offset="1" stop-color="#d9c29f"/>
    </linearGradient>
  </defs>
  <rect width="900" height="520" fill="url(#fpBg)"/>
  <rect x="110" y="70" width="680" height="380" rx="20" fill="#fffaf2"/>
  <rect x="160" y="135" width="580" height="220" fill="#a8c9c9"/>
  <path d="M145 125h610l-60-65H205Z" fill="#0a2b49"/>
  <path d="M240 125v230M370 125v230M500 125v230M630 125v230" stroke="#fffaf2" stroke-width="17"/>
  <path d="M145 125h610v50H145Z" fill="#c79a4a"/>
  <path d="M190 390h520" stroke="#0a2b49" stroke-width="14" stroke-linecap="round"/>
  <g fill="#fffaf2">
    <circle cx="320" cy="280" r="45"/><rect x="270" y="310" width="100" height="55" rx="14"/>
    <circle cx="570" cy="265" r="40"/><rect x="527" y="295" width="86" height="68" rx="14"/>
  </g>
  <g fill="#c77d67">
    <path d="M278 315h84l-11 50h-62Z"/><path d="M532 300h76l-7 63h-62Z"/>
  </g>
  <rect x="655" y="220" width="65" height="105" rx="9" fill="#ead5a4"/>
  <circle cx="687" cy="270" r="20" fill="#c79a4a"/>
</svg>