<svg xmlns="http://www.w3.org/2000/svg" viewBox="0 0 760 190" role="img" aria-labelledby="title desc">
  <title id="title">OCNJ.ETH logo</title>
  <desc id="desc">A Rosemary Beach and Greek coastal inspired navy, gold and sea-glass wordmark.</desc>
  <defs>
    <linearGradient id="gold" x1="0" x2="1">
      <stop offset="0" stop-color="#b98738"/>
      <stop offset=".5" stop-color="#d8b86b"/>
      <stop offset="1" stop-color="#b98738"/>
    </linearGradient>
  </defs>

  <g transform="translate(320 4)">
    <path d="M58 10C29 10 8 33 8 63v65h100V63c0-30-21-53-50-53Z" fill="none" stroke="url(#gold)" stroke-width="3"/>
    <circle cx="58" cy="42" r="8" fill="url(#gold)"/>
    <g stroke="#c79a4a" stroke-width="2" stroke-linecap="round">
      <path d="M58 22v-10M58 72v10M38 42H28M88 42H78M44 28l-7-7M72 56l7 7M72 28l7-7M44 56l-7 7"/>
    </g>
    <path d="M9 78c18-8 32-9 49-1 17 8 31 7 49-3" fill="none" stroke="#ffffff" stroke-width="5" stroke-linecap="round"/>
    <path d="M9 90c18-8 32-9 49-1 17 8 31 7 49-3" fill="none" stroke="#79aeb1" stroke-width="3.4" stroke-linecap="round"/>
    <path d="M9 101c18-8 32-9 49-1 17 8 31 7 49-3" fill="none" stroke="#9fc5c6" stroke-width="3.4" stroke-linecap="round"/>
    <path d="M79 128V88h29v40Z" fill="#f6f1e8" stroke="#d9cbb2" stroke-width="2"/>
    <path d="M88 128v-20c0-9 5-15 11-15s9 6 9 15v20Z" fill="#ffffff"/>
    <path d="M80 88l28-18v18Z" fill="#f6f1e8" stroke="#d9cbb2" stroke-width="2"/>
  </g>

  <text x="65" y="155" fill="#ffffff" font-family="Georgia, 'Times New Roman', serif" font-size="78" letter-spacing="12">OCNJ</text>
  <circle cx="447" cy="137" r="6" fill="url(#gold)"/>
  <text x="475" y="155" fill="#ffffff" font-family="Georgia, 'Times New Roman', serif" font-size="78" letter-spacing="10">ETH</text>
  <text x="380" y="184" text-anchor="middle" fill="#c6e2e2" font-family="Arial, sans-serif" font-size="15" font-weight="700" letter-spacing="7">OCEAN CITY • CURATED</text>
</svg>